<svg width="261" height="271" viewBox="0 0 261 271" fill="none" xmlns="http://www.w3.org/2000/svg">
<path d="M91.2006 20C91.0686 20.8138 91 21.6489 91 22.5C91 31.0604 97.9396 38 106.5 38H144.5C153.06 38 160 31.0604 160 22.5C160 21.6489 159.931 20.8138 159.799 20H177C183.627 20 189 25.3726 189 32V115.385L184.782 117.007C184.01 117.304 183.5 118.046 183.5 118.874V122.43C183.5 123.098 183.166 123.723 182.609 124.094L182.504 124.164C182.175 124.383 181.789 124.5 181.394 124.5H179.516C179.34 124.5 179.166 124.523 179 124.568V54C179 52.8954 178.105 52 177 52H74C72.8954 52 72 52.8954 72 54V177C72 178.105 72.8954 179 74 179H136.25L133.324 180.721C132.543 181.18 132.169 182.107 132.411 182.98L134.083 189H74C67.3726 189 62 183.627 62 177V32C62 25.3726 67.3726 20 74 20H91.2006Z" />
<path d="M97 22.5C97 17.8056 100.806 14 105.5 14H144.5C149.194 14 153 17.8056 153 22.5C153 27.1944 149.194 31 144.5 31H105.5C100.806 31 97 27.1944 97 22.5Z" />
<path fill-rule="evenodd" clip-rule="evenodd" d="M124.5 0C120.358 0 117 3.35787 117 7.5V18.5C117 22.6421 120.358 26 124.5 26C128.642 26 132 22.6421 132 18.5V7.5C132 3.35786 128.642 0 124.5 0ZM124.5 6C123.119 6 122 7.11929 122 8.5V15.5C122 16.8807 123.119 18 124.5 18C125.881 18 127 16.8807 127 15.5V8.5C127 7.11929 125.881 6 124.5 6Z" />
<path d="M85 71C85 69.3431 86.3431 68 88 68H162C163.657 68 165 69.3431 165 71C165 72.6569 163.657 74 162 74H88C86.3431 74 85 72.6569 85 71Z" />
<path fill-rule="evenodd" clip-rule="evenodd" d="M97 89C97 88.4477 96.5523 88 96 88H85C84.4477 88 84 88.4477 84 89V100C84 100.552 84.4477 101 85 101H96C96.5523 101 97 100.552 97 100V89ZM94 92C94 91.4477 93.5523 91 93 91H88C87.4477 91 87 91.4477 87 92V97C87 97.5523 87.4477 98 88 98H93C93.5523 98 94 97.5523 94 97V92Z" />
<path fill-rule="evenodd" clip-rule="evenodd" d="M97 109C97 108.448 96.5523 108 96 108H85C84.4477 108 84 108.448 84 109V120C84 120.552 84.4477 121 85 121H96C96.5523 121 97 120.552 97 120V109ZM94 112C94 111.448 93.5523 111 93 111H88C87.4477 111 87 111.448 87 112V117C87 117.552 87.4477 118 88 118H93C93.5523 118 94 117.552 94 117V112Z" />
<path fill-rule="evenodd" clip-rule="evenodd" d="M97 129C97 128.448 96.5523 128 96 128H85C84.4477 128 84 128.448 84 129V140C84 140.552 84.4477 141 85 141H96C96.5523 141 97 140.552 97 140V129ZM94 132C94 131.448 93.5523 131 93 131H88C87.4477 131 87 131.448 87 132V137C87 137.552 87.4477 138 88 138H93C93.5523 138 94 137.552 94 137V132Z" />
<path fill-rule="evenodd" clip-rule="evenodd" d="M97 149C97 148.448 96.5523 148 96 148H85C84.4477 148 84 148.448 84 149V160C84 160.552 84.4477 161 85 161H96C96.5523 161 97 160.552 97 160V149ZM94 152C94 151.448 93.5523 151 93 151H88C87.4477 151 87 151.448 87 152V157C87 157.552 87.4477 158 88 158H93C93.5523 158 94 157.552 94 157V152Z" fill="none"/>
<path d="M105 95.5C105 94.1193 106.119 93 107.5 93H162.5C163.881 93 165 94.1193 165 95.5C165 96.8807 163.881 98 162.5 98H107.5C106.119 98 105 96.8807 105 95.5Z" />
<path d="M105 115.5C105 114.119 106.119 113 107.5 113H162.5C163.881 113 165 114.119 165 115.5C165 116.881 163.881 118 162.5 118H107.5C106.119 118 105 116.881 105 115.5Z" />
<path d="M105 135.5C105 134.119 106.119 133 107.5 133H152.5C153.881 133 155 134.119 155 135.5C155 136.881 153.881 138 152.5 138H107.5C106.119 138 105 136.881 105 135.5Z" />
<path d="M105 155.5C105 154.119 106.119 153 107.5 153H142.5C143.881 153 145 154.119 145 155.5C145 156.881 143.881 158 142.5 158H107.5C106.119 158 105 156.881 105 155.5Z" />
<path fill-rule="evenodd" clip-rule="evenodd" d="M143.337 164.06L150.584 165.045C151.967 163.802 153.52 162.745 155.203 161.912L155.063 155.445C156.947 154.746 158.932 154.255 160.991 154L164.417 159.798C166.526 159.812 168.559 160.144 170.471 160.749L175.74 156.397C177.315 157.153 178.804 158.061 180.188 159.102L179.505 166.569C180.775 167.977 181.853 169.562 182.697 171.282L189.053 170.865C189.858 172.981 190.401 175.225 190.641 177.56L184.772 180.879C184.726 182.549 184.48 184.169 184.057 185.716L188.432 191.221C187.581 193.099 186.517 194.861 185.272 196.474L178.042 195.493C176.795 196.623 175.408 197.602 173.91 198.4L174.052 204.938C172.024 205.743 169.874 206.305 167.636 206.587L164.614 200.795C164.503 200.797 164.392 200.798 164.28 200.798C162.506 200.798 160.784 200.572 159.142 200.149L153.345 204.443C151.599 203.652 149.955 202.676 148.436 201.542L149.109 194.085C147.952 192.812 146.952 191.393 146.142 189.858L139.728 190.287C138.885 188.217 138.296 186.017 138 183.725L143.781 180.43C143.781 180.386 143.78 180.342 143.78 180.298C143.78 178.561 143.996 176.874 144.403 175.263L139.973 169.726C140.859 167.692 141.993 165.79 143.337 164.06ZM163.78 189.798C168.751 189.798 172.78 185.768 172.78 180.798C172.78 175.827 168.751 171.798 163.78 171.798C158.81 171.798 154.78 175.827 154.78 180.798C154.78 185.768 158.81 189.798 163.78 189.798Z" />
<path fill-rule="evenodd" clip-rule="evenodd" d="M177.069 129.193L183.953 130.129C185.266 128.948 186.741 127.944 188.34 127.153L188.207 121.01C189.997 120.346 191.882 119.88 193.837 119.638L197.092 125.145C199.095 125.159 201.026 125.474 202.842 126.049L207.846 121.915C209.343 122.633 210.757 123.496 212.072 124.484L211.423 131.577C212.629 132.914 213.653 134.419 214.455 136.054L220.492 135.657C221.257 137.666 221.772 139.799 222 142.016L216.426 145.169C216.382 146.755 216.148 148.294 215.746 149.763L219.902 154.992C219.093 156.776 218.083 158.449 216.9 159.982L210.033 159.049C208.848 160.123 207.531 161.052 206.108 161.811L206.244 168.021C204.318 168.785 202.275 169.319 200.149 169.587L197.279 164.086C197.173 164.087 197.068 164.088 196.962 164.088C195.277 164.088 193.641 163.874 192.082 163.472L186.575 167.551C184.917 166.799 183.355 165.872 181.913 164.795L182.552 157.713C181.452 156.503 180.503 155.155 179.733 153.698L173.641 154.105C172.84 152.139 172.281 150.049 172 147.872L177.491 144.742C177.491 144.7 177.49 144.659 177.49 144.617C177.49 142.967 177.696 141.364 178.082 139.834L173.874 134.575C174.716 132.643 175.793 130.837 177.069 129.193ZM196.487 153.64C201.208 153.64 205.036 149.813 205.036 145.092C205.036 140.37 201.208 136.543 196.487 136.543C191.766 136.543 187.939 140.37 187.939 145.092C187.939 149.813 191.766 153.64 196.487 153.64Z" />
<path d="M27.6112 174.707C29.1298 172.986 31.3146 172 33.6099 172H35.9998C40.418 172 43.9998 175.582 43.9998 180V180.332C43.9998 182.01 43.4722 183.645 42.4918 185.007L36.5019 193.325C32.6914 198.617 36.4729 206 42.9939 206H77.2363C83.7726 206 88.9173 211.48 91.8616 217.315C97.9703 229.423 113.191 238 131 238C148.809 238 164.029 229.423 170.138 217.315C173.082 211.48 178.227 206 184.763 206H218.006C224.527 206 228.308 198.617 224.498 193.325L218.508 185.007C217.527 183.645 217 182.01 217 180.332V180C217 175.582 220.581 172 225 172H227.39C229.685 172 231.87 172.986 233.388 174.707L258.998 203.732C260.288 205.193 261 207.076 261 209.025L261 263C261 267.418 257.418 271 253 271H8C3.58172 271 0 267.418 0 263V209.025C0 207.076 0.711644 205.193 2.00128 203.732L27.6112 174.707Z" />
</svg>
